<?xml version="1.0" encoding="utf-8"?>
<svg xmlns="http://www.w3.org/2000/svg" viewBox="0 0 1000 1000" preserveAspectRatio="xMidYMid slice">
  <defs>
    <style>
      .main-line {
        stroke: rgba(0, 0, 0, 0.85);
        stroke-width: 1;
        fill: none;
      }
      .thin-line {
        stroke: rgba(0, 0, 0, 0.5);
        stroke-width: 0.8;
        fill: none;
      }
      .faint-line {
        stroke: rgba(0, 0, 0, 0.08);
        stroke-width: 0.6;
        fill: none;
      }
      .chevron {
        stroke: rgba(0, 0, 0, 0.75);
        stroke-width: 0.5;
        fill: none;
        stroke-linecap: round;
        stroke-linejoin: round;
      }
      .label {
        fill: rgba(0, 0, 0, 0.6);
        font-family: 'Courier New', monospace;
        font-size: 9px;
        font-weight: normal;
      }
      .label-small {
        fill: rgba(0, 0, 0, 0.5);
        font-family: 'Courier New', monospace;
        font-size: 7px;
      }
    </style>
  </defs>

  <!-- Едва заметные осевые линии -->
  <line x1="500" y1="0" x2="500" y2="1000" class="faint-line"/>
  <line x1="0" y1="500" x2="1000" y2="500" class="faint-line"/>

  <!-- Статические шевроны удалены — они будут генерироваться динамически в Reticle -->

  <!-- Дальномерная шкала (левая) -->
  <g id="rangefinder" transform="translate(130, 500)">
    <line x1="0" y1="-180" x2="25" y2="-180" class="main-line"/>
    <text x="32" y="-177" class="label">2</text>

    <line x1="0" y1="-90" x2="25" y2="-90" class="main-line"/>
    <text x="32" y="-87" class="label">4</text>

    <line x1="0" y1="-60" x2="18" y2="-60" class="thin-line"/>
    <text x="24" y="-57" class="label-small">6</text>

    <line x1="0" y1="-45" x2="14" y2="-45" class="thin-line"/>
    <text x="20" y="-42" class="label-small">8</text>

    <line x1="0" y1="-36" x2="10" y2="-36" class="thin-line"/>
    <text x="16" y="-33" class="label-small">10</text>

    <line x1="0" y1="-200" x2="0" y2="150" class="thin-line"/>
  </g>

  <!-- Шкала боковых поправок (нижняя) -->
  <g id="windage" transform="translate(500, 500)">
    <!-- Левые деления -->
    <line x1="-100" y1="0" x2="-100" y2="4" class="thin-line"/>
    <text x="-100" y="-8" class="label-small" text-anchor="middle">10</text>

    <line x1="-80" y1="0" x2="-80" y2="3" class="thin-line"/>
    <text x="-80" y="-8" class="label-small" text-anchor="middle">8</text>

    <line x1="-60" y1="0" x2="-60" y2="3" class="thin-line"/>
    <text x="-60" y="-8" class="label-small" text-anchor="middle">6</text>

    <line x1="-40" y1="0" x2="-40" y2="3" class="thin-line"/>
    <text x="-40" y="-8" class="label-small" text-anchor="middle">4</text>

    <line x1="-20" y1="0" x2="-20" y2="3" class="thin-line"/>
    <text x="-20" y="-8" class="label-small" text-anchor="middle">2</text>

    <!-- Центральный ноль удалён -->

    <!-- Правые деления -->
    <line x1="20" y1="0" x2="20" y2="3" class="thin-line"/>
    <text x="20" y="-8" class="label-small" text-anchor="middle">2</text>

    <line x1="40" y1="0" x2="40" y2="3" class="thin-line"/>
    <text x="40" y="-8" class="label-small" text-anchor="middle">4</text>

    <line x1="60" y1="0" x2="60" y2="3" class="thin-line"/>
    <text x="60" y="-8" class="label-small" text-anchor="middle">6</text>

    <line x1="80" y1="0" x2="80" y2="3" class="thin-line"/>
    <text x="80" y="-8" class="label-small" text-anchor="middle">8</text>

    <line x1="100" y1="0" x2="100" y2="4" class="thin-line"/>
    <text x="100" y="-8" class="label-small" text-anchor="middle">10</text>
  </g>
</svg>
